<mxfile host="app.diagrams.net" agent="Mozilla/5.0 (Windows NT 10.0; Win64; x64) AppleWebKit/537.36 (KHTML, like Gecko) Chrome/129.0.0.0 Safari/537.36" version="24.7.14" pages="2">
  <diagram name="Page-1" id="QSfnKHVm2n_zSw1G_Ihk">
    <mxGraphModel dx="743" dy="448" grid="0" gridSize="10" guides="1" tooltips="1" connect="1" arrows="1" fold="1" page="1" pageScale="1" pageWidth="60000" pageHeight="40000" math="0" shadow="0">
      <root>
        <mxCell id="0" />
        <mxCell id="1" parent="0" />
        <mxCell id="azhgSP3oUg0ZV9pWkkkJ-12" style="edgeStyle=orthogonalEdgeStyle;rounded=0;orthogonalLoop=1;jettySize=auto;html=1;exitX=1;exitY=0.5;exitDx=0;exitDy=0;" edge="1" parent="1" source="azhgSP3oUg0ZV9pWkkkJ-1">
          <mxGeometry relative="1" as="geometry">
            <mxPoint x="470" y="570" as="targetPoint" />
          </mxGeometry>
        </mxCell>
        <mxCell id="azhgSP3oUg0ZV9pWkkkJ-1" value="methodsReview" style="rounded=1;whiteSpace=wrap;html=1;" vertex="1" parent="1">
          <mxGeometry x="230" y="440" width="120" height="60" as="geometry" />
        </mxCell>
        <mxCell id="azhgSP3oUg0ZV9pWkkkJ-2" value="" style="endArrow=classic;html=1;rounded=0;entryX=0.5;entryY=0;entryDx=0;entryDy=0;" edge="1" parent="1" target="azhgSP3oUg0ZV9pWkkkJ-1">
          <mxGeometry width="50" height="50" relative="1" as="geometry">
            <mxPoint x="290" y="390" as="sourcePoint" />
            <mxPoint x="720" y="430" as="targetPoint" />
          </mxGeometry>
        </mxCell>
        <mxCell id="azhgSP3oUg0ZV9pWkkkJ-3" value="Type, 0, Name" style="text;html=1;align=center;verticalAlign=middle;resizable=0;points=[];autosize=1;strokeColor=none;fillColor=none;" vertex="1" parent="1">
          <mxGeometry x="240" y="360" width="100" height="30" as="geometry" />
        </mxCell>
        <mxCell id="azhgSP3oUg0ZV9pWkkkJ-11" style="edgeStyle=orthogonalEdgeStyle;rounded=0;orthogonalLoop=1;jettySize=auto;html=1;exitX=0.5;exitY=1;exitDx=0;exitDy=0;entryX=0.5;entryY=0;entryDx=0;entryDy=0;" edge="1" parent="1" source="azhgSP3oUg0ZV9pWkkkJ-5" target="azhgSP3oUg0ZV9pWkkkJ-10">
          <mxGeometry relative="1" as="geometry" />
        </mxCell>
        <mxCell id="azhgSP3oUg0ZV9pWkkkJ-5" value="methodsReview" style="rounded=1;whiteSpace=wrap;html=1;" vertex="1" parent="1">
          <mxGeometry x="410" y="370" width="120" height="60" as="geometry" />
        </mxCell>
        <mxCell id="azhgSP3oUg0ZV9pWkkkJ-15" style="edgeStyle=orthogonalEdgeStyle;rounded=0;orthogonalLoop=1;jettySize=auto;html=1;exitX=0.5;exitY=1;exitDx=0;exitDy=0;" edge="1" parent="1" source="azhgSP3oUg0ZV9pWkkkJ-10">
          <mxGeometry relative="1" as="geometry">
            <mxPoint x="470" y="630" as="targetPoint" />
          </mxGeometry>
        </mxCell>
        <mxCell id="azhgSP3oUg0ZV9pWkkkJ-18" style="edgeStyle=orthogonalEdgeStyle;rounded=0;orthogonalLoop=1;jettySize=auto;html=1;exitX=1;exitY=0.5;exitDx=0;exitDy=0;entryX=0.5;entryY=0;entryDx=0;entryDy=0;" edge="1" parent="1" source="azhgSP3oUg0ZV9pWkkkJ-10" target="azhgSP3oUg0ZV9pWkkkJ-19">
          <mxGeometry relative="1" as="geometry">
            <mxPoint x="640" y="600" as="targetPoint" />
            <Array as="points">
              <mxPoint x="640" y="560" />
            </Array>
          </mxGeometry>
        </mxCell>
        <mxCell id="azhgSP3oUg0ZV9pWkkkJ-10" value="Name = methods[i]" style="rhombus;whiteSpace=wrap;html=1;" vertex="1" parent="1">
          <mxGeometry x="400" y="520" width="140" height="80" as="geometry" />
        </mxCell>
        <mxCell id="azhgSP3oUg0ZV9pWkkkJ-13" value="Type, Index, Name" style="text;html=1;align=center;verticalAlign=middle;resizable=0;points=[];autosize=1;strokeColor=none;fillColor=none;" vertex="1" parent="1">
          <mxGeometry x="470" y="430" width="120" height="30" as="geometry" />
        </mxCell>
        <mxCell id="azhgSP3oUg0ZV9pWkkkJ-14" value="Yes" style="text;html=1;align=center;verticalAlign=middle;resizable=0;points=[];autosize=1;strokeColor=none;fillColor=none;" vertex="1" parent="1">
          <mxGeometry x="490" y="578" width="40" height="30" as="geometry" />
        </mxCell>
        <mxCell id="azhgSP3oUg0ZV9pWkkkJ-16" value="true" style="text;html=1;align=center;verticalAlign=middle;resizable=0;points=[];autosize=1;strokeColor=none;fillColor=none;" vertex="1" parent="1">
          <mxGeometry x="450" y="628" width="40" height="30" as="geometry" />
        </mxCell>
        <mxCell id="azhgSP3oUg0ZV9pWkkkJ-17" value="No" style="text;html=1;align=center;verticalAlign=middle;resizable=0;points=[];autosize=1;strokeColor=none;fillColor=none;" vertex="1" parent="1">
          <mxGeometry x="500" y="520" width="40" height="30" as="geometry" />
        </mxCell>
        <mxCell id="azhgSP3oUg0ZV9pWkkkJ-21" style="edgeStyle=orthogonalEdgeStyle;rounded=0;orthogonalLoop=1;jettySize=auto;html=1;exitX=0.5;exitY=1;exitDx=0;exitDy=0;" edge="1" parent="1" source="azhgSP3oUg0ZV9pWkkkJ-19">
          <mxGeometry relative="1" as="geometry">
            <mxPoint x="640.1176470588236" y="700" as="targetPoint" />
          </mxGeometry>
        </mxCell>
        <mxCell id="azhgSP3oUg0ZV9pWkkkJ-23" style="edgeStyle=orthogonalEdgeStyle;rounded=0;orthogonalLoop=1;jettySize=auto;html=1;exitX=1;exitY=0.5;exitDx=0;exitDy=0;entryX=0.5;entryY=0;entryDx=0;entryDy=0;" edge="1" parent="1" source="azhgSP3oUg0ZV9pWkkkJ-19" target="azhgSP3oUg0ZV9pWkkkJ-5">
          <mxGeometry relative="1" as="geometry">
            <mxPoint x="480" y="320" as="targetPoint" />
            <Array as="points">
              <mxPoint x="720" y="640" />
              <mxPoint x="720" y="320" />
              <mxPoint x="470" y="320" />
            </Array>
          </mxGeometry>
        </mxCell>
        <mxCell id="azhgSP3oUg0ZV9pWkkkJ-19" value="Index + 1 = size(methods)" style="rhombus;whiteSpace=wrap;html=1;" vertex="1" parent="1">
          <mxGeometry x="580" y="600" width="120" height="80" as="geometry" />
        </mxCell>
        <mxCell id="azhgSP3oUg0ZV9pWkkkJ-20" value="No" style="text;html=1;align=center;verticalAlign=middle;resizable=0;points=[];autosize=1;strokeColor=none;fillColor=none;" vertex="1" parent="1">
          <mxGeometry x="650" y="658" width="40" height="30" as="geometry" />
        </mxCell>
        <mxCell id="azhgSP3oUg0ZV9pWkkkJ-22" value="false" style="text;html=1;align=center;verticalAlign=middle;resizable=0;points=[];autosize=1;strokeColor=none;fillColor=none;" vertex="1" parent="1">
          <mxGeometry x="615" y="700" width="50" height="30" as="geometry" />
        </mxCell>
        <mxCell id="azhgSP3oUg0ZV9pWkkkJ-26" value="Type, Index + 1, Name" style="text;html=1;align=center;verticalAlign=middle;resizable=0;points=[];autosize=1;strokeColor=none;fillColor=none;" vertex="1" parent="1">
          <mxGeometry x="475" y="320" width="140" height="30" as="geometry" />
        </mxCell>
      </root>
    </mxGraphModel>
  </diagram>
  <diagram id="NvoY2NtRBV0y9Fn3_bPq" name="Page-2">
    <mxGraphModel dx="61143" dy="689" grid="0" gridSize="10" guides="1" tooltips="1" connect="1" arrows="1" fold="1" page="1" pageScale="1" pageWidth="60000" pageHeight="40000" math="0" shadow="0">
      <root>
        <mxCell id="0" />
        <mxCell id="1" parent="0" />
        <mxCell id="lUTh8QghLnCpD-5xpQtI-5" style="edgeStyle=orthogonalEdgeStyle;rounded=0;orthogonalLoop=1;jettySize=auto;html=1;exitX=0.5;exitY=1;exitDx=0;exitDy=0;entryX=0.5;entryY=0;entryDx=0;entryDy=0;" edge="1" parent="1" source="lUTh8QghLnCpD-5xpQtI-6" target="lUTh8QghLnCpD-5xpQtI-21">
          <mxGeometry relative="1" as="geometry">
            <mxPoint x="219" y="504" as="targetPoint" />
          </mxGeometry>
        </mxCell>
        <mxCell id="lUTh8QghLnCpD-5xpQtI-6" value="getRType" style="rounded=1;whiteSpace=wrap;html=1;" vertex="1" parent="1">
          <mxGeometry x="156" y="414" width="120" height="60" as="geometry" />
        </mxCell>
        <mxCell id="lUTh8QghLnCpD-5xpQtI-14" style="edgeStyle=orthogonalEdgeStyle;rounded=0;orthogonalLoop=1;jettySize=auto;html=1;exitX=0.5;exitY=1;exitDx=0;exitDy=0;" edge="1" parent="1" source="lUTh8QghLnCpD-5xpQtI-16">
          <mxGeometry relative="1" as="geometry">
            <mxPoint x="420.11764705882365" y="738" as="targetPoint" />
          </mxGeometry>
        </mxCell>
        <mxCell id="lUTh8QghLnCpD-5xpQtI-15" style="edgeStyle=orthogonalEdgeStyle;rounded=0;orthogonalLoop=1;jettySize=auto;html=1;entryX=0.5;entryY=0;entryDx=0;entryDy=0;exitX=1;exitY=0.5;exitDx=0;exitDy=0;" edge="1" parent="1" source="lUTh8QghLnCpD-5xpQtI-16" target="lUTh8QghLnCpD-5xpQtI-6">
          <mxGeometry relative="1" as="geometry">
            <mxPoint x="480" y="320" as="targetPoint" />
            <Array as="points">
              <mxPoint x="520" y="678" />
              <mxPoint x="520" y="390" />
              <mxPoint x="216" y="390" />
            </Array>
            <mxPoint x="545" y="678" as="sourcePoint" />
          </mxGeometry>
        </mxCell>
        <mxCell id="lUTh8QghLnCpD-5xpQtI-16" value="Index - 1 = 0" style="rhombus;whiteSpace=wrap;html=1;" vertex="1" parent="1">
          <mxGeometry x="360" y="638" width="120" height="80" as="geometry" />
        </mxCell>
        <mxCell id="lUTh8QghLnCpD-5xpQtI-17" value="Yes" style="text;html=1;align=center;verticalAlign=middle;resizable=0;points=[];autosize=1;strokeColor=none;fillColor=none;" vertex="1" parent="1">
          <mxGeometry x="431" y="698" width="38" height="26" as="geometry" />
        </mxCell>
        <mxCell id="lUTh8QghLnCpD-5xpQtI-18" value="Ertype" style="text;html=1;align=center;verticalAlign=middle;resizable=0;points=[];autosize=1;strokeColor=none;fillColor=none;" vertex="1" parent="1">
          <mxGeometry x="394" y="740" width="53" height="26" as="geometry" />
        </mxCell>
        <mxCell id="lUTh8QghLnCpD-5xpQtI-35" style="edgeStyle=orthogonalEdgeStyle;rounded=0;orthogonalLoop=1;jettySize=auto;html=1;exitX=0.5;exitY=1;exitDx=0;exitDy=0;entryX=0.5;entryY=0;entryDx=0;entryDy=0;" edge="1" parent="1" source="lUTh8QghLnCpD-5xpQtI-21" target="lUTh8QghLnCpD-5xpQtI-33">
          <mxGeometry relative="1" as="geometry" />
        </mxCell>
        <mxCell id="lUTh8QghLnCpD-5xpQtI-36" style="edgeStyle=orthogonalEdgeStyle;rounded=0;orthogonalLoop=1;jettySize=auto;html=1;exitX=1;exitY=0.5;exitDx=0;exitDy=0;entryX=0.5;entryY=0;entryDx=0;entryDy=0;" edge="1" parent="1" source="lUTh8QghLnCpD-5xpQtI-21" target="lUTh8QghLnCpD-5xpQtI-16">
          <mxGeometry relative="1" as="geometry" />
        </mxCell>
        <mxCell id="lUTh8QghLnCpD-5xpQtI-21" value="Достиг ли индекс (StIndex) индекса изначального типа (Index)" style="rhombus;whiteSpace=wrap;html=1;" vertex="1" parent="1">
          <mxGeometry x="90" y="555" width="252" height="117" as="geometry" />
        </mxCell>
        <mxCell id="lUTh8QghLnCpD-5xpQtI-25" value="Name, Index, StIndex, type_list&amp;lt;T, Rest...&amp;gt;" style="text;html=1;align=center;verticalAlign=middle;resizable=0;points=[];autosize=1;strokeColor=none;fillColor=none;" vertex="1" parent="1">
          <mxGeometry x="-26" y="474" width="250" height="30" as="geometry" />
        </mxCell>
        <mxCell id="lUTh8QghLnCpD-5xpQtI-26" value="Name, Index, StIndex - 1, type_list&amp;lt;Rest...&amp;gt;" style="text;html=1;align=center;verticalAlign=middle;resizable=0;points=[];autosize=1;strokeColor=none;fillColor=none;" vertex="1" parent="1">
          <mxGeometry x="171" y="360" width="260" height="30" as="geometry" />
        </mxCell>
        <mxCell id="lUTh8QghLnCpD-5xpQtI-27" value="No" style="text;html=1;align=center;verticalAlign=middle;resizable=0;points=[];autosize=1;strokeColor=none;fillColor=none;" vertex="1" parent="1">
          <mxGeometry x="453" y="636" width="33" height="26" as="geometry" />
        </mxCell>
        <mxCell id="lUTh8QghLnCpD-5xpQtI-29" value="No" style="text;html=1;align=center;verticalAlign=middle;resizable=0;points=[];autosize=1;strokeColor=none;fillColor=none;" vertex="1" parent="1">
          <mxGeometry x="309" y="570" width="33" height="26" as="geometry" />
        </mxCell>
        <mxCell id="lUTh8QghLnCpD-5xpQtI-32" value="Yes" style="text;html=1;align=center;verticalAlign=middle;resizable=0;points=[];autosize=1;strokeColor=none;fillColor=none;" vertex="1" parent="1">
          <mxGeometry x="232" y="672" width="38" height="26" as="geometry" />
        </mxCell>
        <mxCell id="lUTh8QghLnCpD-5xpQtI-41" style="edgeStyle=orthogonalEdgeStyle;rounded=0;orthogonalLoop=1;jettySize=auto;html=1;exitX=0.5;exitY=1;exitDx=0;exitDy=0;" edge="1" parent="1" source="lUTh8QghLnCpD-5xpQtI-33">
          <mxGeometry relative="1" as="geometry">
            <mxPoint x="215.73913043478387" y="900" as="targetPoint" />
          </mxGeometry>
        </mxCell>
        <mxCell id="lUTh8QghLnCpD-5xpQtI-33" value="methodsReview?" style="rhombus;whiteSpace=wrap;html=1;" vertex="1" parent="1">
          <mxGeometry x="156" y="784" width="120" height="80" as="geometry" />
        </mxCell>
        <mxCell id="lUTh8QghLnCpD-5xpQtI-37" value="false" style="text;html=1;align=center;verticalAlign=middle;resizable=0;points=[];autosize=1;strokeColor=none;fillColor=none;" vertex="1" parent="1">
          <mxGeometry x="248" y="794" width="43" height="26" as="geometry" />
        </mxCell>
        <mxCell id="lUTh8QghLnCpD-5xpQtI-39" value="" style="endArrow=none;html=1;rounded=0;exitX=1;exitY=0.5;exitDx=0;exitDy=0;" edge="1" parent="1" source="lUTh8QghLnCpD-5xpQtI-33">
          <mxGeometry width="50" height="50" relative="1" as="geometry">
            <mxPoint x="300" y="824" as="sourcePoint" />
            <mxPoint x="520" y="670" as="targetPoint" />
            <Array as="points">
              <mxPoint x="520" y="824" />
            </Array>
          </mxGeometry>
        </mxCell>
        <mxCell id="lUTh8QghLnCpD-5xpQtI-40" value="Yes" style="text;html=1;align=center;verticalAlign=middle;resizable=0;points=[];autosize=1;strokeColor=none;fillColor=none;" vertex="1" parent="1">
          <mxGeometry x="220" y="848" width="40" height="30" as="geometry" />
        </mxCell>
        <mxCell id="lUTh8QghLnCpD-5xpQtI-42" value="T" style="text;html=1;align=center;verticalAlign=middle;resizable=0;points=[];autosize=1;strokeColor=none;fillColor=none;" vertex="1" parent="1">
          <mxGeometry x="201" y="900" width="30" height="30" as="geometry" />
        </mxCell>
      </root>
    </mxGraphModel>
  </diagram>
</mxfile>
